<svg width="30" height="47" viewBox="0 0 30 47" fill="none" xmlns="http://www.w3.org/2000/svg">
<path d="M15 46.4048C23.2843 46.4048 30 39.6176 30 31.2453C30 22.8729 23.2843 16.0858 15 16.0858C6.71573 16.0858 0 22.8729 0 31.2453C0 39.6176 6.71573 46.4048 15 46.4048Z" fill="#2196F3"/>
<path d="M1.13489 25.4151C1.13489 25.4151 2.18987 21.7431 5.62862 15.3893C9.06738 9.03549 14.89 0 14.89 0C14.89 0 20.4385 8.36353 23.9499 14.738C27.4613 21.1124 28.9351 25.4979 28.9351 25.4979L1.13489 25.4151Z" fill="#2196F3"/>
<path opacity="0.66" d="M14.0273 43.373C13.2971 43.3729 12.5696 43.2868 11.8596 43.1164C11.1611 42.9475 10.4838 42.7007 9.84055 42.3804C9.19263 42.057 8.58034 41.6667 8.0137 41.2158C7.43428 40.7545 6.90108 40.2379 6.42163 39.6733C5.92783 39.0916 5.48829 38.4658 5.10849 37.804C4.71563 37.1193 4.38378 36.4013 4.11677 35.6584C3.8401 34.8876 3.63054 34.0943 3.49042 33.2874C3.20094 31.6136 3.19907 29.9026 3.48489 28.2282C3.62155 27.4308 3.82596 26.6466 4.09589 25.884H4.08545V25.8829C4.10633 25.8008 4.30165 25.0409 4.77172 23.6924C5.06057 22.8639 5.39431 21.9813 5.76344 21.0689C6.22537 19.9283 6.74472 18.7376 7.30718 17.53C7.86964 16.3224 8.56875 14.8971 9.3852 13.2931C10.0384 12.0099 10.7674 10.6102 11.5525 9.13352C12.8812 6.63355 13.9378 4.72643 13.9484 4.70743C13.9484 4.70743 13.951 4.71181 13.9551 4.71912C14.083 4.94387 14.4345 5.56354 14.9339 6.46047C13.5547 9.00021 10.9826 13.8156 9.25283 17.53C8.69037 18.7375 8.17102 19.9281 7.70909 21.0689C7.33954 21.9814 7.0057 22.8644 6.71737 23.6924C6.22736 25.098 6.03277 25.8762 6.03089 25.884H6.04133C5.49086 27.4442 5.21192 29.0872 5.21664 30.7417C5.21664 33.9166 6.22349 36.9513 8.0516 39.2871C9.86874 41.6087 12.3362 43.0417 14.9999 43.3218C14.6768 43.3558 14.3521 43.3729 14.0273 43.373Z" fill="white"/>
</svg>
